HIERARCHY
ROOT Hips
{
	OFFSET 0.00000 0.00000 0.00000
	CHANNELS 6 Xposition Yposition Zposition Zrotation Yrotation Xrotation 
	JOINT LHipJoint
	{
		OFFSET 0 0 0
		CHANNELS 3 Zrotation Yrotation Xrotation
		JOINT LeftHip
		{
			OFFSET 1.36306 -1.79463 0.83929
			CHANNELS 3 Zrotation Yrotation Xrotation
			JOINT LeftKnee
			{
				OFFSET 2.44811 -6.72613 0.00000
				CHANNELS 3 Zrotation Yrotation Xrotation
				JOINT LeftAnkle
				{
					OFFSET 2.56220 -7.03959 0.00000
					CHANNELS 3 Zrotation Yrotation Xrotation
					JOINT LeftToe
					{
						OFFSET 0.15764 -0.43311 2.32255
						CHANNELS 3 Zrotation Yrotation Xrotation
						End Site
						{
							OFFSET 0.00000 -0.00000 1.18966
						}
					}
				}
			}
		}
	}
	JOINT RHipJoint
	{
		OFFSET 0 0 0
		CHANNELS 3 Zrotation Yrotation Xrotation
		JOINT RightHip
		{
			OFFSET -1.30552 -1.79463 0.83929
			CHANNELS 3 Zrotation Yrotation Xrotation
			JOINT RightKnee
			{
				OFFSET -2.54253 -6.98555 0.00000
				CHANNELS 3 Zrotation Yrotation Xrotation
				JOINT RightAnkle
				{
					OFFSET -2.56826 -7.05623 0.00000
					CHANNELS 3 Zrotation Yrotation Xrotation
					JOINT RightToe
					{
						OFFSET -0.16473 -0.45259 2.36315
						CHANNELS 3 Zrotation Yrotation Xrotation
						End Site
						{
							OFFSET -0.00000 -0.00000 1.21082
						}
					}
				}
			}
		}
	}
	JOINT lowerback
	{
		OFFSET 0 0 0
		CHANNELS 3 Zrotation Yrotation Xrotation
		JOINT Chest
		{
			OFFSET 0.02827 2.03559 -0.19338
			CHANNELS 3 Zrotation Yrotation Xrotation
			JOINT Chest2
			{
				OFFSET 0.05672 2.04885 -0.04275
				CHANNELS 3 Zrotation Yrotation Xrotation
				JOINT lowerneck
				{
					OFFSET 0 0 0
					CHANNELS 3 Zrotation Yrotation Xrotation
					JOINT Neck
					{
						OFFSET -0.05417 1.74624 0.17202
						CHANNELS 3 Zrotation Yrotation Xrotation
						JOINT Head
						{
							OFFSET 0.10407 1.76136 -0.12397
							CHANNELS 3 Zrotation Yrotation Xrotation
							End Site
							{
								OFFSET 0.03720 1.77044 -0.06241
							}
						}
					}
				}
				JOINT LeftCollar
				{
					OFFSET 0 0 0
					CHANNELS 3 Zrotation Yrotation Xrotation
					JOINT LeftShoulder
					{
						OFFSET 3.36241 1.20089 -0.31121
CHANNELS 3 Zrotation Xrotation Yrotation
						JOINT LeftElbow
						{
OFFSET 0 -4.983000 -0.000000
CHANNELS 3 Zrotation Xrotation Yrotation
							JOINT LeftWrist
							{
OFFSET 0 -3.483560 -0.000000
CHANNELS 3 Zrotation Xrotation Yrotation
								JOINT lhand
								{
									OFFSET 0 0 0
CHANNELS 3 Zrotation Xrotation Yrotation
									JOINT LFingers
									{
OFFSET 0 -0.715260 -0.000000
CHANNELS 3 Zrotation Xrotation Yrotation
										End Site
										{
OFFSET 0 -0.576660 -0.000000
										}
									}
								}
								JOINT LThumb
								{
OFFSET 0 0.000000 0.000000
CHANNELS 3 Zrotation Xrotation Yrotation
									End Site
									{
OFFSET 0 -0.585470 0.585470
									}
								}
							}
						}
					}
				}
				JOINT RightCollar
				{
					OFFSET 0 0 0
					CHANNELS 3 Zrotation Yrotation Xrotation
					JOINT RightShoulder
					{
						OFFSET -3.13660 1.37405 -0.40465
CHANNELS 3 Zrotation Xrotation Yrotation
						JOINT RightElbow
						{
OFFSET 0 -5.241900 -0.000000
CHANNELS 3 Zrotation Xrotation Yrotation
							JOINT RightWrist
							{
OFFSET 0 -3.444170 -0.000000
CHANNELS 3 Zrotation Xrotation Yrotation
								JOINT rhand
								{
									OFFSET 0 0 0
CHANNELS 3 Zrotation Xrotation Yrotation
									JOINT RFingers
									{
OFFSET 0 -0.622530 -0.000000
CHANNELS 3 Zrotation Xrotation Yrotation
										End Site
										{
OFFSET 0 -0.501900 -0.000000
										}
									}
								}
								JOINT RThumb
								{
OFFSET 0 0.000000 0.000000
CHANNELS 3 Zrotation Xrotation Yrotation
									End Site
									{
OFFSET 0 -0.509560 0.509560
									}
								}
							}
						}
					}
				}
			}
		}
	}
}
MOTION
Frames: 9
Frame Time: 0.008333333333333333
13.327100 31.789300 45.672400 -170.636000 7.005600 141.454000 0.000000 0.000000 0.000000 3.944100 2.494100 -70.600600 30.532500 17.099300 122.306800 0.531400 -13.564700 -15.053700 0.216400 -2.994700 -8.264000 0.000000 0.000000 0.000000 23.160000 0.080000 -63.969300 -35.988000 -12.176300 143.641300 -2.335900 -6.415200 -31.705800 -1.089000 -6.632100 18.629800 0.032600 -11.018400 38.978600 -5.508500 -5.987300 20.950300 -3.796500 0.967500 3.533500 -5.509800 4.235500 -8.248100 4.817600 6.023200 11.695700 2.751800 3.087000 4.534500 0.000000 0.000000 0.000000 75.770500 -54.381600 22.442600 116.025700 -57.279200 82.333000 -24.347900 15.042200 -11.299300 0.000000 0.000000 0.000000 -7.125000 0.000000 0.000000 -41.599600 37.559300 -9.818400 0.000000 0.000000 0.000000 56.172300 -71.417800 104.207500 -113.016800 -57.900400 -79.792600 1.133800 21.075900 30.383600 0.000000 0.000000 0.000000 7.125000 0.000000 -0.000000 35.098600 56.685100 -10.983900
13.337557 31.430998 45.520343 -170.561199 6.901210 139.770027 0.000000 0.000000 0.000000 4.326166 4.356195 -71.792386 31.453429 16.506711 125.491963 0.507512 -14.511885 -15.243649 0.112310 -2.152375 -5.927411 0.000000 0.000000 0.000000 22.560019 2.730458 -68.621584 -35.862762 -12.340619 143.051770 -2.017359 -6.578518 -29.840082 -0.532259 -4.674366 12.982319 0.320093 -11.135187 38.659421 -5.248424 -5.979833 21.128855 -3.674133 1.027803 3.829603 -6.407384 3.862533 -7.459724 5.028859 5.535182 10.381584 2.880687 2.816327 3.996114 0.000000 0.000000 0.000000 73.823796 -54.610684 21.192698 113.299550 -57.844591 80.031879 -13.564311 17.539399 -7.821780 0.000000 0.000000 0.000000 -7.125000 0.000000 0.000000 -32.778391 35.817630 -8.596761 0.000000 0.000000 0.000000 58.750130 -73.422369 106.844820 -110.441007 -58.360569 -77.604942 3.346124 20.905210 29.986911 0.000000 0.000000 0.000000 7.125000 0.000000 0.000000 36.823161 55.912000 -10.908348
13.348857 31.061842 45.367219 -169.683738 7.042963 138.981947 0.000000 0.000000 0.000000 5.795881 6.134863 -74.352368 32.391325 15.823399 128.860046 0.583279 -14.920419 -16.072193 0.244837 -3.183615 -8.790285 0.000000 0.000000 0.000000 21.330687 5.951933 -71.354552 -35.030254 -13.348787 139.309867 -1.990047 -2.250549 -27.556941 -0.161235 -2.586941 7.130888 2.113880 -11.828970 37.318568 -5.487292 -6.399620 21.436329 -4.744224 0.999703 4.302771 -7.105504 3.533658 -8.094890 6.122949 5.095733 10.760185 3.335500 2.640532 4.192061 0.000000 0.000000 0.000000 76.902198 -56.696272 24.686139 108.238083 -58.704237 75.725890 -15.062999 17.923601 -7.642893 0.000000 0.000000 0.000000 -7.125000 0.000000 0.000000 -33.775208 35.525146 -9.249730 0.000000 0.000000 0.000000 64.652566 -74.723716 112.504735 -107.485372 -58.812352 -75.082291 0.531479 20.109425 30.306569 0.000000 0.000000 0.000000 7.125000 0.000000 0.000000 34.464034 56.745910 -10.802787
13.368934 30.690083 45.217002 -169.997068 6.242210 138.353776 0.000000 0.000000 0.000000 5.402013 7.582538 -77.143006 33.189026 15.170109 131.845153 0.399032 -16.376578 -15.201274 0.159501 -2.570505 -7.085280 0.000000 0.000000 0.000000 18.055197 7.199393 -72.961260 -34.028761 -14.399557 135.135369 -1.946783 2.789418 -25.667557 -0.009305 -0.549554 1.510417 2.258998 -11.903606 35.802927 -5.749160 -6.699616 21.545032 -5.072362 0.822565 4.820223 -7.743549 3.498472 -7.641640 7.294656 4.983054 10.060048 3.765350 2.626863 3.860061 0.000000 0.000000 0.000000 79.287921 -58.230225 27.659495 105.152204 -59.113347 73.083037 -17.334201 16.575030 -7.632554 0.000000 0.000000 0.000000 -7.125000 0.000000 0.000000 -35.347618 35.293468 -10.103734 0.000000 0.000000 0.000000 69.835600 -75.930364 117.095607 -104.802742 -59.155112 -72.783140 0.792422 19.352422 30.751844 0.000000 0.000000 0.000000 7.125000 0.000000 0.000000 35.097489 57.058234 -11.312223
13.377764 30.322484 45.081138 -170.261751 5.528948 137.935945 0.000000 0.000000 0.000000 4.686644 8.740257 -80.547516 33.935354 14.490112 134.760509 0.338766 -16.670677 -14.841645 0.192966 -2.828710 -7.802270 0.000000 0.000000 0.000000 16.410525 7.373635 -73.539426 -33.202162 -15.158985 131.894955 -1.696782 3.905362 -23.687372 -0.008309 0.586706 -1.612151 2.799820 -12.143066 34.157477 -6.192092 -7.098824 21.715725 -5.785304 0.656343 5.380637 -7.997180 3.241013 -8.087440 7.846697 4.636323 10.124964 3.976482 2.483002 3.959577 0.000000 0.000000 0.000000 83.536367 -58.988492 31.483952 99.713964 -59.637715 68.402141 -15.904236 16.105485 -6.312122 0.000000 0.000000 0.000000 -7.125000 0.000000 0.000000 -33.855958 34.295225 -10.520509 0.000000 0.000000 0.000000 77.345564 -76.866312 123.653075 -101.297690 -59.511323 -69.767981 2.580781 17.861650 30.427900 0.000000 0.000000 0.000000 7.125000 0.000000 0.000000 36.493334 56.423981 -11.265070
13.376060 29.933150 44.909101 -169.978654 5.315954 136.983698 0.000000 0.000000 0.000000 4.720036 10.210320 -83.117981 34.688065 13.725982 137.847862 0.313268 -17.140202 -14.884151 0.157118 -2.552378 -7.035018 0.000000 0.000000 0.000000 16.981757 5.963493 -74.697238 -33.517462 -14.879075 133.113191 -1.230382 0.864791 -20.711345 -0.107091 2.109710 -5.808984 4.270933 -10.575029 39.191916 -3.038069 -5.740778 16.333841 -3.448537 0.372899 -1.602600 -12.957016 1.816359 -3.080066 9.373193 2.714274 12.034561 5.148566 1.406185 3.764248 0.000000 0.000000 0.000000 71.921110 -62.349120 19.477222 92.256136 -59.975407 61.953675 -14.945209 15.158031 -6.496941 0.000000 0.000000 0.000000 -7.125000 0.000000 0.000000 -33.255639 34.543468 -10.028850 0.000000 0.000000 0.000000 40.860732 -78.878986 89.221820 -97.314191 -59.795290 -66.329852 2.545754 17.208269 30.594255 0.000000 0.000000 0.000000 7.125000 0.000000 0.000000 36.606902 56.565923 -11.438503
13.437057 29.531190 44.715840 -170.583135 4.529672 135.015826 0.000000 0.000000 0.000000 4.023884 12.553392 -85.281292 35.424283 12.888783 141.045248 0.149335 -18.028689 -14.015954 0.109620 -2.132856 -5.873082 0.000000 0.000000 0.000000 14.492808 4.367742 -77.056676 -34.525539 -13.898639 137.166351 -1.302284 6.183404 -20.417959 -0.034037 1.187274 -3.264333 4.156008 -10.726633 38.831894 -3.727760 -6.079941 16.374592 -4.009680 0.239076 -1.555528 -13.755627 1.794836 -2.350535 10.571124 2.548802 11.752642 5.639530 1.346030 3.538570 0.000000 0.000000 0.000000 77.165385 -63.883151 23.826197 83.698576 -59.845144 54.545790 -14.570120 15.398060 -5.984103 0.000000 0.000000 0.000000 -7.125000 0.000000 0.000000 -32.811948 34.132341 -10.234081 0.000000 0.000000 0.000000 45.303689 -80.199318 92.811419 -92.402208 -59.976885 -62.080201 2.544874 16.075618 30.585479 0.000000 0.000000 0.000000 7.125000 0.000000 0.000000 36.598091 56.558656 -11.429452
13.503819 29.135015 44.554307 -170.433791 5.274421 132.421234 0.000000 0.000000 0.000000 5.700344 16.718583 -86.253415 36.026719 12.124176 143.826622 -0.075497 -19.899207 -13.367493 0.067944 -1.681896 -4.627287 0.000000 0.000000 0.000000 15.643813 4.341609 -77.169044 -35.000648 -13.382725 139.180902 -1.111294 4.045503 -18.991372 -0.032379 1.154002 -3.172749 4.376876 -10.781954 39.804619 -3.682047 -5.782359 16.509937 -4.145666 0.515477 -1.682455 -14.403674 1.656142 -2.189693 10.859354 2.356702 11.813830 5.835459 1.236886 3.541718 0.000000 0.000000 0.000000 82.208458 -65.379644 28.768394 75.257790 -59.158619 47.269283 -13.884635 15.998546 -5.426322 0.000000 0.000000 0.000000 -7.125000 0.000000 0.000000 -32.135426 33.705006 -10.349652 0.000000 0.000000 0.000000 55.952603 -80.933408 102.400668 -87.560914 -59.976237 -57.887860 4.467083 15.874900 30.537204 0.000000 0.000000 0.000000 7.125000 0.000000 0.000000 38.336437 56.127337 -11.668739
13.569160 28.799622 44.426089 -170.925491 5.242964 130.589349 0.000000 0.000000 0.000000 6.069850 19.590939 -87.599657 36.498774 11.464906 146.135149 -0.199502 -21.106719 -13.247262 0.068733 -1.512808 -4.163703 0.000000 0.000000 0.000000 15.868241 3.600488 -78.070736 -35.546746 -12.739797 141.597290 -1.176683 3.223163 -19.688859 -0.050500 1.449856 -3.987565 3.894397 -10.477871 39.750297 -3.832111 -5.572095 16.590943 -4.142138 0.625482 -1.536204 -14.622606 1.621388 -1.475983 11.310953 2.206964 11.570638 5.996997 1.168634 3.356351 0.000000 0.000000 0.000000 87.054336 -66.276472 33.004651 67.324740 -57.961475 40.497480 -12.168429 17.168990 -5.091338 0.000000 0.000000 0.000000 -7.125000 0.000000 0.000000 -30.811350 33.552092 -9.922829 0.000000 0.000000 0.000000 60.591604 -82.255716 107.295547 -80.822330 -59.677153 -52.060608 3.433795 15.881702 30.061937 0.000000 0.000000 0.000000 7.125000 0.000000 0.000000 36.968712 55.954991 -11.001200
